<?xml version="1.0" encoding="utf-8"?>
<!-- Generator: Adobe Illustrator 24.0.1, SVG Export Plug-In . SVG Version: 6.00 Build 0)  -->
<svg version="1.1" id="Camada_1" xmlns="http://www.w3.org/2000/svg" xmlns:xlink="http://www.w3.org/1999/xlink" x="0px" y="0px"
	 viewBox="0 0 2000 2000" style="enable-background:new 0 0 2000 2000;" xml:space="preserve">
<style type="text/css">
	.st0{fill:#BC9C7E;}
</style>
<g>
	<circle class="st0" cx="1000" cy="1000" r="110.21"/>
	<g>
		<path class="st0" d="M1064.84,1652.54l226.79,120.92c15.21,8.05,33.15,7.56,47.95-1.29c14.8-8.85,23.65-24.46,23.65-41.76v-236.77
			L1064.84,1652.54z"/>
	</g>
	<g>
		<path class="st0" d="M708.36,226.61c-7.24-3.86-15.04-5.71-22.93-5.71c-8,0-16,2.02-23.36,6.05
			c-16.19,8.87-25.32,26.8-25.32,45.27l0,233.19c0,0.46,0.49,0.76,0.9,0.54l296.56-157.95c0.43-0.23,0.43-0.85,0-1.08L708.36,226.61
			z"/>
	</g>
	<g>
		<path class="st0" d="M1840,858.56v297.19c0,18.1-9.9,34.51-25.83,43.04L708.36,1787.7c-15.21,8.13-33.15,7.72-47.95-1.21
			c-14.8-8.85-23.65-24.46-23.65-41.76v-246.75c0-11.99,4.51-23.65,12.79-32.82c3.62-4.1,8.05-7.56,13.19-10.22l689.8-363.88
			c31.94-16.89,51.81-49.72,51.73-85.84c0-36.12-19.87-68.95-51.81-85.76l-311.11-163.64c0,0,329.13-174.5,330.74-175.71
			l442.08,235.48C1830.1,824.12,1840,840.62,1840,858.56z"/>
	</g>
	<g>
		<path class="st0" d="M1363.24,255.33v246.67c0,12.07-4.51,23.65-12.79,32.91c-3.62,4.1-8.05,7.56-13.19,10.22L937.73,755.9
			L647.46,909c-31.94,16.89-51.73,49.8-51.73,85.92c0.08,36.12,19.87,68.95,51.81,85.76l311.11,163.56
			c0,0-330.42,175.47-330.74,175.71l-442.08-235.56c-15.93-8.45-25.82-24.94-25.82-42.96V844.24c0-18.02,9.9-34.43,25.82-42.96
			l1105.81-588.99c7.24-3.86,15.04-5.79,22.93-5.79c8.61,0,17.22,2.41,25.02,7.08C1354.39,222.42,1363.24,238.03,1363.24,255.33z"/>
	</g>
</g>
</svg>
